# xmcd
#
# Track frame offsets:
#	150
#	16012
#	29602
#	42680
#	57930
#	70205
#	95415
#	113340
#	125887
#	138520
#	157272
#	169475
#
# Disc length: 2540 seconds
#
# Revision: 1
# Processed by: cddbd v1.5.1PL0 Copyright (c) Steve Scherf et al.
# Submitted via: CDex 1.50Beta5
#
DISCID=ae09ea0c
DTITLE=ヒカシュー - ヒカシュー/夏 Disc 1
DYEAR=1900
DGENRE=Pop
TTITLE0=レトリックス&ロジックス
TTITLE1=モデル
TTITLE2=ルージング・マイ・フューチャー
TTITLE3=テイスト・オブ・ルナ
TTITLE4=20世紀の終りに
TTITLE5=プヨプヨ
TTITLE6=ラブ・トリートメント
TTITLE7=炎天下
TTITLE8=何故かバーニング
TTITLE9=ビニール人形
TTITLE10=雨のミュージアム
TTITLE11=幼虫の危機
EXTD=
EXTT0=
EXTT1=
EXTT2=
EXTT3=
EXTT4=
EXTT5=
EXTT6=
EXTT7=
EXTT8=
EXTT9=
EXTT10=
EXTT11=
PLAYORDER=
